<?xml version="1.0" standalone="no"?>
<!DOCTYPE svg PUBLIC "-//W3C//DTD SVG 1.0//EN" "http://www.w3.org/TR/2001/REC-SVG-20010904/DTD/svg10.dtd">
<svg xmlns="http://www.w3.org/2000/svg" xmlns:xlink="http://www.w3.org/1999/xlink" id="body_1" width="384" height="384">

<g transform="matrix(1 0 0 1 0 0)">
    <path transform="matrix(1 0 0 1 0 0)"  d="M0 0C 126.72 0 253.44 0 384 0C 384 126.72 384 253.44 384 384C 257.28 384 130.56 384 0 384C 0 257.28 0 130.56 0 0z" stroke="none" fill="#FEFEFE" fill-rule="nonzero" />
    <path transform="matrix(1 0 0 1 292.23047 112.92578)"  d="M0 0C 3.1628401 0.9013275 6.3180814 1.7020628 9.519531 2.4492188C 19.082699 4.7720904 28.416325 8.031805 37.76953 11.074219C 36.712032 15.862917 34.56389 20.044626 32.45703 24.449219C 31.791512 25.84056 31.791512 25.84056 31.112549 27.26001C 16.57793 57.291153 -0.6204874 86.788445 -21.230469 113.07422C -21.869844 113.90566 -22.509218 114.73711 -23.167969 115.59375C -41.8137 139.4648 -63.455063 156.72665 -93.23047 164.07422C -93.9745 164.26259 -94.71853 164.45094 -95.48511 164.64502C -120.542625 170.37376 -146.15227 165.91246 -167.91797 152.76172C -181.28278 143.96959 -181.28278 143.96959 -184.23047 138.07422C -192.89395 137.52992 -199.30391 138.6293 -207.23047 142.07422C -208.2179 142.47511 -209.2053 142.87602 -210.22266 143.28906C -217.94797 146.48479 -225.49597 150.04414 -233.04297 153.63672C -234.00945 154.0957 -234.97592 154.55469 -235.97168 155.02759C -241.27309 157.57123 -246.41573 160.24358 -251.45972 163.26929C -252.04407 163.53491 -252.62842 163.80054 -253.23047 164.07422C -253.89047 163.74422 -254.55048 163.41422 -255.23047 163.07422C -246.04466 155.53206 -236.82733 148.09178 -227.23047 141.07422C -226.58948 140.6005 -225.9485 140.12675 -225.28809 139.63867C -206.55688 125.80184 -186.98508 113.517 -166.9414 101.67627C -164.68982 100.34568 -162.44377 99.00645 -160.19922 97.66406C -152.29434 93.01903 -144.13129 89.08881 -135.82422 85.23047C -131.91121 83.40912 -128.06903 81.48481 -124.23047 79.51172C -111.73164 73.218605 -98.67949 68.114876 -85.55078 63.30078C -82.75675 62.268635 -79.99296 61.186863 -77.23047 60.07422C -77.90924 60.265324 -78.58801 60.456425 -79.28735 60.65332C -82.4556 61.544666 -85.62424 62.434605 -88.79297 63.32422C -90.50831 63.80629 -90.50831 63.80629 -92.2583 64.298096C -98.361046 66.00826 -104.46953 67.67517 -110.60547 69.26172C -115.555534 70.56814 -120.30136 72.11815 -125.08203 73.94141C -130.0773 75.73871 -135.16003 77.26338 -140.24316 78.79248C -145.05963 80.27362 -149.60126 82.04909 -154.18066 84.15039C -156.83734 85.347725 -159.55257 86.335754 -162.29297 87.32422C -173.46416 91.58364 -184.0515 96.98888 -193.9961 103.62891C -196.02472 104.94113 -198.0483 106.04319 -200.23047 107.07422C -201.8004 101.51718 -202.5571 96.58786 -202.48047 90.82422C -202.47443 90.08478 -202.46838 89.345345 -202.46216 88.583496C -202.34923 82.27148 -201.60951 76.24039 -200.23047 70.07422C -200.05902 69.21055 -199.88757 68.34688 -199.71094 67.45703C -193.72057 41.408577 -173.60265 18.101053 -151.40283 4.1779785C -141.91731 -1.6264586 -132.99152 -5.0900145 -122.23047 -7.9257812C -121.09996 -8.272539 -119.96945 -8.619297 -118.80469 -8.9765625C -81.02451 -19.009987 -36.52725 -10.578278 0 0z" stroke="none" fill="#3FAC5C" fill-rule="nonzero" />
    <path transform="matrix(1 0 0 1 218 173)"  d="M0 0C -7.5293 3.0966015 -15.068921 6.0972524 -23 8C -23.33 7.01 -23.66 6.02 -24 5C -20.566547 3.965194 -17.12771 2.9495904 -13.6875 1.9375C -12.711035 1.6429492 -11.7345705 1.3483984 -10.728516 1.0449219C -9.790723 0.7709961 -8.85293 0.4970703 -7.8867188 0.21484375C -7.022644 -0.04176025 -6.1585693 -0.29836425 -5.2683105 -0.56274414C -3 -1 -3 -1 0 0z" stroke="none" fill="#DDF0E2" fill-rule="nonzero" />
    <path transform="matrix(1 0 0 1 49 266)"  d="M0 0C 0.66 0.33 1.32 0.66 2 1C -1.167164 5.5923877 -5.078576 8.409777 -10 11C -10.66 10.67 -11.32 10.34 -12 10C -8.04 6.7 -4.08 3.4 0 0z" stroke="none" fill="#5CB975" fill-rule="nonzero" />
    <path transform="matrix(1 0 0 1 218 173)"  d="M0 0C -1.5552912 0.703656 -3.1196482 1.3872938 -4.6875 2.0625C -5.557617 2.4453516 -6.4277344 2.8282032 -7.3242188 3.2226562C -10.322139 4.093585 -12.032802 3.8500624 -15 3C -10.447199 0.3441993 -5.0840826 -1.6946942 0 0z" stroke="none" fill="#9FD5AE" fill-rule="nonzero" />
</g>
</svg>