<?xml version="1.0" encoding="UTF-8"?>
<svg version="1.1"
    xmlns="http://www.w3.org/2000/svg" height="100%" viewBox="0 0 172.000000 172.000000" preserveAspectRatio="xMidYMid meet">

    <path d="M0 0 C126.72 0 253.44 0 384 0 C384 126.72 384 253.44 384 384 C257.28 384 130.56 384 0 384 C0 257.28 0 130.56 0 0 Z " fill="#FEFEFE" transform="translate(0,0)"/>
    <path d="M0 0 C3.16284015 0.9013275 6.3180814 1.70206284 9.51953125 2.44921875 C19.08269829 4.77209029 28.41632536 8.03180514 37.76953125 11.07421875 C36.71203277 15.86291651 34.56388973 20.04462676 32.45703125 24.44921875 C31.79151245 25.8405603 31.79151245 25.8405603 31.11254883 27.26000977 C16.57792953 57.29115386 -0.62048741 86.78844176 -21.23046875 113.07421875 C-21.86984375 113.90566406 -22.50921875 114.73710937 -23.16796875 115.59375 C-41.81370024 139.46479737 -63.45506346 156.72664939 -93.23046875 164.07421875 C-93.97449951 164.26258301 -94.71853027 164.45094727 -95.48510742 164.64501953 C-120.54262418 170.37376838 -146.15226276 165.91246699 -167.91796875 152.76171875 C-181.28278002 143.96959621 -181.28278002 143.96959621 -184.23046875 138.07421875 C-192.89394837 137.52991637 -199.30390629 138.62929583 -207.23046875 142.07421875 C-208.21789062 142.47511719 -209.2053125 142.87601563 -210.22265625 143.2890625 C-217.94797057 146.48478605 -225.49596739 150.04413933 -233.04296875 153.63671875 C-234.00944336 154.09570557 -234.97591797 154.55469238 -235.97167969 155.02758789 C-241.27308285 157.57122263 -246.41573221 160.24358207 -251.4597168 163.26928711 C-252.04406494 163.53491455 -252.62841309 163.80054199 -253.23046875 164.07421875 C-253.89046875 163.74421875 -254.55046875 163.41421875 -255.23046875 163.07421875 C-246.04466216 155.53206537 -236.82732855 148.09177725 -227.23046875 141.07421875 C-226.58948242 140.60048828 -225.94849609 140.12675781 -225.28808594 139.63867188 C-206.55688683 125.80183825 -186.98507252 113.5170003 -166.94140625 101.67626953 C-164.68982168 100.34567714 -162.4437713 99.00645049 -160.19921875 97.6640625 C-152.29434677 93.01902674 -144.13128541 89.08881019 -135.82421875 85.23046875 C-131.91120497 83.4091153 -128.06903128 81.48481164 -124.23046875 79.51171875 C-111.73164042 73.21860239 -98.67948721 68.11487208 -85.55078125 63.30078125 C-82.75675142 62.26863376 -79.99295981 61.18686425 -77.23046875 60.07421875 C-77.90924072 60.26532227 -78.5880127 60.45642578 -79.28735352 60.65332031 C-82.45559883 61.54466584 -85.62423702 62.43460396 -88.79296875 63.32421875 C-90.50830811 63.80628784 -90.50830811 63.80628784 -92.25830078 64.2980957 C-98.36104245 66.00826154 -104.46953103 67.67516788 -110.60546875 69.26171875 C-115.55553671 70.5681398 -120.30136298 72.11814838 -125.08203125 73.94140625 C-130.07730038 75.73871152 -135.16003981 77.26338522 -140.24316406 78.79248047 C-145.05963019 80.27361922 -149.60125696 82.04908671 -154.18066406 84.15039062 C-156.8373356 85.34772806 -159.55256393 86.3357551 -162.29296875 87.32421875 C-173.46415594 91.58364217 -184.05149631 96.98888001 -193.99609375 103.62890625 C-196.02472215 104.94113091 -198.04828789 106.04318835 -200.23046875 107.07421875 C-201.80039481 101.5171789 -202.55709517 96.58785797 -202.48046875 90.82421875 C-202.47442627 90.08478027 -202.46838379 89.3453418 -202.4621582 88.58349609 C-202.34922356 82.2714762 -201.60951245 76.24038867 -200.23046875 70.07421875 C-200.05902344 69.21054688 -199.88757813 68.346875 -199.7109375 67.45703125 C-193.72056625 41.40857819 -173.60264977 18.10105416 -151.40283203 4.17797852 C-141.91731235 -1.62645862 -132.99152178 -5.09001469 -122.23046875 -7.92578125 C-121.09996094 -8.27253906 -119.96945313 -8.61929688 -118.8046875 -8.9765625 C-81.02450962 -19.00998679 -36.52724892 -10.57827764 0 0 Z " fill="#3FAC5C" transform="translate(292.23046875,112.92578125)"/>
    <path d="M0 0 C-7.5293003 3.09660158 -15.0689214 6.09725244 -23 8 C-23.33 7.01 -23.66 6.02 -24 5 C-20.5665483 3.96519395 -17.12770974 2.94959041 -13.6875 1.9375 C-12.71103516 1.64294922 -11.73457031 1.34839844 -10.72851562 1.04492188 C-9.79072266 0.77099609 -8.85292969 0.49707031 -7.88671875 0.21484375 C-7.02264404 -0.04176025 -6.15856934 -0.29836426 -5.26831055 -0.56274414 C-3 -1 -3 -1 0 0 Z " fill="#DDF0E2" transform="translate(218,173)"/>
    <path d="M0 0 C0.66 0.33 1.32 0.66 2 1 C-1.16716391 5.59238768 -5.07857614 8.40977692 -10 11 C-10.66 10.67 -11.32 10.34 -12 10 C-8.04 6.7 -4.08 3.4 0 0 Z " fill="#5CB975" transform="translate(49,266)"/>
    <path d="M0 0 C-1.5552912 0.70365602 -3.11964827 1.38729378 -4.6875 2.0625 C-5.55761719 2.44535156 -6.42773438 2.82820312 -7.32421875 3.22265625 C-10.32213864 4.0935848 -12.03280153 3.85006226 -15 3 C-10.44719878 0.34419929 -5.08408244 -1.69469415 0 0 Z " fill="#9FD5AE" transform="translate(218,173)"/>

</svg>
